<svg id="Layer_1" data-name="Layer 1" xmlns="http://www.w3.org/2000/svg" viewBox="0 0 180.72 116.64"><defs><style>.cls-1{fill:red;}.cls-2{fill:#fff;}</style></defs><title>citi_blue-redarc</title><path class="cls-1" d="M180.63,31.44C168.34,13,145.6,0,121.35,0a72.78,72.78,0,0,0-59.3,31.44H79C90.58,19.52,105.58,13,121.35,13a59.13,59.13,0,0,1,42.32,18.41Z"/><path class="cls-2" d="M55.05,93.91l-.32.32c-5.19,5.32-11.24,8.13-17.45,8.13-13,0-22.41-9.74-22.41-23.17S24.29,56,37.28,56c6.21,0,12.26,2.82,17.45,8.15l.32.33,8.37-10.11-.21-.26c-6.94-8.22-15.3-12.2-25.53-12.2S18,45.37,11.22,51.61C3.87,58.4,0,67.9,0,79.19S3.87,100,11.22,106.77c6.79,6.26,16.18,9.7,26.46,9.7s18.59-4,25.53-12.2l.21-.27Z"/><polygon class="cls-2" points="71.85 115.09 86.6 115.09 86.6 105.63 86.6 43.09 71.85 43.09 71.85 115.09"/><path class="cls-2" d="M144.4,99.44c-3.94,2.38-7.62,3.61-10.92,3.61-4.77,0-6.89-2.51-6.89-8.14V56.71h15V43.16h-15V20.75L112.1,28.49V43.16H99.64V56.71H112.1V97.35c0,11.08,6.58,18.64,16.37,18.84a23.18,23.18,0,0,0,13.07-3.31l.15-.11,3.57-13.86Z"/><polygon class="cls-2" points="156.6 115.09 171.35 115.09 171.35 105.15 171.35 43.09 156.6 43.09 156.6 115.09"/></svg>